# xmcd
#
# Track frame offsets: 
#        187
#        10035
#        20745
#        32545
#        42672
#        52917
#        62380
#        73272
#
# Disc length: 1124 seconds
#
# Revision: 2
# Processed by: cddbd v1.4PL0 Copyright (c) Steve Scherf et al.
# Submitted via: ExactAudioCopy v0.90b4
#
DISCID=63046208
DTITLE=The Sons Of The Pioneers - Cool Water
DYEAR=1992
DGENRE=Western
TTITLE0=Cool Water
TTITLE1=Riders In The Sky
TTITLE2=Wind
TTITLE3=Cowboy's Dream
TTITLE4=Red River Valley
TTITLE5=Whoopie-Ti-Yi-Yo
TTITLE6=Teardrops In My Heart
TTITLE7=Tumbling Tumbleweeds
EXTD=
EXTT0=
EXTT1=
EXTT2=
EXTT3=
EXTT4=
EXTT5=
EXTT6=
EXTT7=
PLAYORDER=
